<svg xmlns="http://www.w3.org/2000/svg" aria-hidden="true" style="position:absolute;width:0;height:0;overflow:hidden">
  <defs>
    <symbol id="icon-return_04" viewBox="0 0 26 32">
      <path stroke-linecap="round" stroke-linejoin="round" stroke-width="2.064" d="m6.308 30.968-5.276-5.276 5.276-5.276"/>
      <path stroke-linecap="round" stroke-linejoin="round" stroke-width="2.064" d="M24.774 17.778v2.638a5.272 5.272 0 0 1-5.276 5.276H1.032M19.498 1.95l5.276 5.276-5.276 5.276"/>
      <path stroke-linecap="round" stroke-linejoin="round" stroke-width="2.064" d="M1.032 15.14v-2.638a5.272 5.272 0 0 1 5.276-5.276h18.466"/>
    </symbol>
    <symbol id="icon-support_03" viewBox="0 0 32 32">
      <path stroke-linecap="round" stroke-linejoin="round" stroke-width="2.207" d="M16 30.897c8.227 0 14.897-6.669 14.897-14.897S24.228 1.103 16 1.103C7.773 1.103 1.103 7.772 1.103 16S7.772 30.897 16 30.897z"/>
      <path stroke-linecap="round" stroke-linejoin="round" stroke-width="2.207" d="M16 21.959a5.96 5.96 0 1 0 0-11.918 5.96 5.96 0 0 0 0 11.918zM20.216 20.216l6.316 6.316M5.468 26.532l6.316-6.316M20.216 11.784l6.316-6.316M20.216 11.784l5.258-5.258M5.468 5.468l6.316 6.316"/>
    </symbol>
    <symbol id="icon-shop_bag-02" viewBox="0 0 30 32">
      <path stroke="black" stroke-linecap="round" stroke-linejoin="round" stroke-width="2.844" d="M6.4 2.133 2.133 7.822v19.911a2.845 2.845 0 0 0 2.844 2.844h19.911a2.845 2.845 0 0 0 2.844-2.844V7.822l-4.267-5.689H6.398z"/>
      <path stroke="black" stroke-linecap="round" stroke-linejoin="round" stroke-width="2.844" d="M20.622 13.511a5.689 5.689 0 1 1-11.378 0M2.133 7.822h25.6"/>
    </symbol>
    
  <symbol id="icon-track_01" viewBox="0 0 39 32">
      <path stroke-linecap="round" stroke-linejoin="round" stroke-width="3.11" d="M29.417 29.793a3.887 3.887 0 1 0 0-7.773 3.887 3.887 0 0 0 0 7.773zM9.204 29.793a3.887 3.887 0 1 0 0-7.773 3.887 3.887 0 0 0 0 7.773z"/>
      <path stroke-linecap="round" stroke-linejoin="round" stroke-width="3.11" d="M25.53 9.58h6.219l4.665 4.665v7.774H25.53V9.58zM25.53 1.806H2.207v20.213H25.53V1.806z"/>
    </symbol>

    <symbol id="icon-arrow-right" viewBox="0 0 16 32">
      <path stroke-linecap="round" stroke-linejoin="round" stroke-width="3.2" d="m1.6 29.488 12.8-13.302L1.6 2.884"/>
    </symbol>
    <symbol id="icon-massage" viewBox="0 0 35 32">
      <path d="M0 6.214c0-2.845 1.97-5.152 4.4-5.152h26.4c2.427 0 4.4 2.306 4.4 5.152V26.82c0 2.841-1.973 5.152-4.4 5.152H4.4c-2.43 0-4.4-2.31-4.4-5.152V6.214zm3.3 0v1.779l11.859 11.398c1.416 1.368 3.465 1.368 4.881 0L31.899 7.993V6.142c0-.636-.495-1.288-1.1-1.288h-26.4c-.608 0-1.1.652-1.1 1.288v.072zm0 6.777v13.828c0 .708.492 1.288 1.1 1.288h26.4c.605 0 1.1-.58 1.1-1.288V12.991l-9.763 9.385c-2.64 2.535-6.435 2.535-9.137 0l-9.701-9.385z"/>
    </symbol>
    <symbol id="icon-fly" viewBox="0 0 32 32">
      <path d="M31.132 1.087c.631.417.963 1.139.844 1.86l-4 24.803c-.094.578-.463 1.085-1 1.371s-1.181.322-1.75.095l-7.894-3.13-2.506 4.442c-.325.578-1.019.87-1.688.71S12 30.505 12 29.849v-5.724c0-.316.113-.626.319-.876L22.65 10.573c.156-.423-.406-.853-.812-.501L8.65 21.448a2.072 2.072 0 0 1-2.112.346l-5.313-2.111c-.7-.28-1.175-.912-1.219-1.64s.344-1.413 1.006-1.777l28-15.264a2.088 2.088 0 0 1 2.125.083h-.006z"/>
    </symbol>
    <symbol id="icon-linkedin-in" viewBox="0 0 28 32">
      <path d="M6.268 28H.463V9.306h5.805V28zM3.362 6.757C1.506 6.757 0 5.22 0 3.363A3.366 3.366 0 0 1 3.362.001a3.366 3.366 0 0 1 3.362 3.362c0 1.856-1.506 3.394-3.362 3.394zM27.994 28h-5.793v-9.1c0-2.169-.044-4.95-3.018-4.95-3.018 0-3.481 2.356-3.481 4.794V28H9.903V9.306h5.567v2.55h.081c.775-1.469 2.668-3.019 5.492-3.019 5.875 0 6.955 3.869 6.955 8.894V28h-.006z"/>
    </symbol>
    <symbol id="icon-twitter" viewBox="0 0 32 32">
      <path d="M28.711 9.482c.02.284.02.569.02.853 0 8.67-6.599 18.66-18.66 18.66A18.53 18.53 0 0 1 0 26.051c.528.061 1.036.081 1.584.081 3.066 0 5.888-1.035 8.142-2.802a6.57 6.57 0 0 1-6.132-4.548c.406.061.812.102 1.239.102.589 0 1.178-.081 1.726-.223A6.56 6.56 0 0 1 1.3 12.224v-.081a6.6 6.6 0 0 0 2.964.832A6.556 6.556 0 0 1 1.34 7.513c0-1.218.325-2.335.893-3.31a18.639 18.639 0 0 0 13.523 6.863 7.437 7.437 0 0 1-.162-1.502 6.555 6.555 0 0 1 6.558-6.558c1.888 0 3.594.792 4.792 2.071a12.88 12.88 0 0 0 4.162-1.584 6.539 6.539 0 0 1-2.883 3.614A13.168 13.168 0 0 0 32 6.092a14.103 14.103 0 0 1-3.289 3.391z"/>
    </symbol>
    <symbol id="icon-instagram" viewBox="0 0 32 32">
      <path d="M16.007 7.914c-4.543 0-8.207 3.607-8.207 8.079s3.664 8.079 8.207 8.079c4.543 0 8.207-3.607 8.207-8.079s-3.664-8.079-8.207-8.079zm0 13.331c-2.936 0-5.336-2.355-5.336-5.252s2.393-5.252 5.336-5.252c2.943 0 5.336 2.355 5.336 5.252s-2.4 5.252-5.336 5.252zM26.464 7.584c0 1.048-.857 1.884-1.914 1.884-1.064 0-1.914-.844-1.914-1.884S23.493 5.7 24.55 5.7s1.914.844 1.914 1.884zM31.9 9.496c-.121-2.524-.707-4.76-2.586-6.602C27.443 1.052 25.171.475 22.607.349 19.964.201 12.043.201 9.4.349c-2.557.12-4.829.696-6.707 2.538S.236 6.965.107 9.489c-.15 2.602-.15 10.399 0 13.001.121 2.524.707 4.76 2.586 6.602s4.143 2.419 6.707 2.545c2.643.148 10.564.148 13.207 0 2.564-.12 4.836-.696 6.707-2.545 1.871-1.842 2.457-4.078 2.586-6.602.15-2.602.15-10.392 0-12.994zm-3.414 15.785c-.557 1.378-1.636 2.44-3.043 2.995-2.107.823-7.107.633-9.436.633s-7.336.183-9.436-.633a5.359 5.359 0 0 1-3.043-2.995c-.836-2.074-.643-6.996-.643-9.288s-.186-7.221.643-9.288c.557-1.378 1.636-2.44 3.043-2.995 2.107-.823 7.107-.633 9.436-.633s7.336-.183 9.436.633a5.359 5.359 0 0 1 3.043 2.995c.836 2.074.643 6.996.643 9.288s.193 7.221-.643 9.288z"/>
    </symbol>
    <symbol id="icon-facebook" viewBox="0 0 20 32">
      <path d="m17.63 18 .898-5.791h-5.615V8.451c0-1.584.784-3.129 3.299-3.129h2.553V.391S16.448 0 14.233 0C9.609 0 6.586 2.774 6.586 7.795v4.414h-5.14V18h5.14v14h6.327V18h4.717z"/>
    </symbol>

<symbol id="testimonials-circle" viewBox="0 0 147 7">
  <circle cx="3.5" cy="3.5" r="3.5" />
  <circle cx="43.5" cy="3.5" r="3.5" />
  <circle cx="83.5" cy="3.5" r="3.5" />
  <circle cx="123.5" cy="3.5" r="3.5" />
  <circle cx="23.5" cy="3.5" r="3.5" />
  <circle cx="63.5" cy="3.5" r="3.5" />
  <circle cx="103.5" cy="3.5" r="3.5" />
  <circle cx="143.5" cy="3.5" r="3.5" />
</symbol>

<symbol id="icon-arrow-left"  viewBox="0 0 16 32">
 <path d="M9 18.43L1 10.1164L9 1.80273" stroke="black" stroke-width="2" stroke-linecap="round" stroke-linejoin="round"/>
</symbol>
  </defs>
</svg>


